<svg id="Capa_1" data-name="Capa 1" xmlns="http://www.w3.org/2000/svg" viewBox="0 0 56 77.16"><defs><style>.cls-1{fill:#fff;}.cls-2{fill:#004a92;}.cls-3{fill:#e70029;}</style></defs><title>logo-pepsi</title><path class="cls-1" d="M48.79,61.55a1.1,1.1,0,0,0,0,2.2,1.1,1.1,0,0,0,0-2.2"/><path class="cls-1" d="M47.8,47.8a28,28,0,1,1,0-39.6,28,28,0,0,1,0,39.6"/><path class="cls-2" d="M50.08,13.69A18.31,18.31,0,0,1,43.33,34c-7.95,5.85-19.53,5.86-35.52,10.9A26.31,26.31,0,0,0,50.08,13.69"/><path class="cls-3" d="M43.79,6.94a26.32,26.32,0,0,0-37,36.68,54.63,54.63,0,0,0,37-36.68"/><path class="cls-1" d="M26.52,69v0c0-.09,0-.24,0-.4a4.91,4.91,0,0,0-4.67-4.25,4.4,4.4,0,0,0-.62,0,4.78,4.78,0,0,0-4.1,5.46A4.67,4.67,0,0,0,21.8,74a4.44,4.44,0,0,0,.63,0A4.81,4.81,0,0,0,25.7,72.2a.3.3,0,0,0,.06-.2.25.25,0,0,0-.11-.16,8.4,8.4,0,0,0-.92-.48l-.19-.09a.37.37,0,0,0-.19-.07.29.29,0,0,0-.2.11,3,3,0,0,1-1.94,1.06,2.83,2.83,0,0,1-.41,0,3.18,3.18,0,0,1-3-2v0l0,0A3.87,3.87,0,0,1,20.42,70h.34l.78.09a11.24,11.24,0,0,0,1.62.14,8.44,8.44,0,0,0,1.12-.08,6.05,6.05,0,0,0,2.06-.7.39.39,0,0,0,.18-.45m-1.66-.6a5.27,5.27,0,0,1-1,.19,4.38,4.38,0,0,1-.67,0c-.43,0-.89,0-1.34-.07h0c-.42,0-.81-.06-1.19-.06a6.06,6.06,0,0,0-.76,0,5.69,5.69,0,0,0-1.26.31v-.06A3.25,3.25,0,0,1,21.41,66a2.69,2.69,0,0,1,.4,0,3.35,3.35,0,0,1,3.08,2.4v0Z"/><rect class="cls-1" x="47.91" y="64.66" width="1.66" height="9.11" rx="0.22"/><path class="cls-1" d="M48.74,61.57a1.1,1.1,0,1,0,1.1,1.1,1.1,1.1,0,0,0-1.1-1.1"/><path class="cls-1" d="M32.57,74h.23a4.58,4.58,0,0,0,3.28-1.35,4.92,4.92,0,0,0-3.44-8.31A4.71,4.71,0,0,0,28,67.92a10.78,10.78,0,0,0-.2,2.22v6.8a.22.22,0,0,0,.23.22h1.21a.22.22,0,0,0,.22-.22V72.66l.06.06a4.92,4.92,0,0,0,3,1.28m0-8a3.13,3.13,0,0,1,3.08,3.24,3,3,0,0,1-3,3.2,3.18,3.18,0,0,1-2.23-.87,3.07,3.07,0,0,1-.94-2.28A3.2,3.2,0,0,1,32.62,66"/><path class="cls-1" d="M10.86,74h.23a4.56,4.56,0,0,0,3.28-1.35,4.92,4.92,0,0,0-3.44-8.31,4.73,4.73,0,0,0-4.6,3.58,11.74,11.74,0,0,0-.19,2.22v6.8a.22.22,0,0,0,.22.22H7.57a.23.23,0,0,0,.23-.22V72.66l.06.06a4.92,4.92,0,0,0,3,1.28m.06-8A3.12,3.12,0,0,1,14,69.22a3,3,0,0,1-3,3.2,3.2,3.2,0,0,1-2.24-.87,3.1,3.1,0,0,1-.93-2.28A3.2,3.2,0,0,1,10.92,66"/><path class="cls-1" d="M38.6,72.48A5.22,5.22,0,0,0,42.29,74h.05c2.58,0,3.73-1.42,3.73-2.81a2.71,2.71,0,0,0-2.37-2.56l-.55-.11c-.45-.08-.91-.17-1.34-.29s-1.26-.4-1.26-1.12.88-1.23,1.71-1.23a2.93,2.93,0,0,1,2,.7.38.38,0,0,0,.24.1.37.37,0,0,0,.22-.08,8.13,8.13,0,0,0,.83-.72.26.26,0,0,0,.09-.19.39.39,0,0,0-.13-.23,4.89,4.89,0,0,0-3.3-1.11h0c-1.93,0-3.38,1.24-3.38,2.88,0,1.31,1.07,2.23,3,2.61l1.22.24c.79.14,1.24.57,1.23,1.16s-.73,1.18-1.89,1.18a3.66,3.66,0,0,1-2.5-1h0a.27.27,0,0,0-.19-.1.34.34,0,0,0-.18.08c-.07,0-.88.7-1,.79a.19.19,0,0,0-.06.13.35.35,0,0,0,.1.19"/><path class="cls-1" d="M51.3,72a1,1,0,1,1-1,1A1,1,0,0,1,51.3,72Zm0,1.83a.83.83,0,1,0-.82-.83A.83.83,0,0,0,51.3,73.81Zm.16-.68a.31.31,0,0,0,.22-.31.31.31,0,0,0-.33-.33H51v1h.2v-.35h.06l.25.35h.25Zm-.11-.45a.13.13,0,0,1,.13.14.12.12,0,0,1-.13.13h-.19v-.27Z"/></svg>